<svg preserveAspectRatio="none" width="100%" height="100%" overflow="visible" style="display: block;" viewBox="0 0 30 31.8031" fill="none" xmlns="http://www.w3.org/2000/svg">
<g id="Group 9">
<path id="Vector" fill-rule="evenodd" clip-rule="evenodd" d="M22.0009 31.8031C26.4176 31.8031 29.9999 28.234 29.9999 23.8293C29.9999 20.9972 28.519 18.5106 26.2853 17.0967L26.3379 17.1295V20.4754H24.7386V16.3342L24.7679 16.3441C23.8818 16.0186 22.945 15.8524 22.0009 15.8532C17.5842 15.8532 14.002 19.4221 14.002 23.8271C14.002 28.2321 17.5821 31.8031 22.0009 31.8031Z" fill="var(--fill-0, white)"/>
<path id="Vector_2" fill-rule="evenodd" clip-rule="evenodd" d="M26.3357 11.3998H24.7361V16.3383C25.2972 16.5423 25.8336 16.8085 26.3354 17.1317L26.3357 11.3998Z" fill="var(--fill-0, white)"/>
<path id="Vector_3" fill-rule="evenodd" clip-rule="evenodd" d="M0 0.000105585H11.9526V31.7737L4.35856 21.1871C8.29268 19.5013 11.0479 15.6045 11.0479 11.064C11.0479 4.98078 6.10193 0.0502592 0 0.0502592V0.000105585Z" fill="var(--fill-0, white)"/>
</g>
</svg>
