<svg width="331" height="206" viewBox="0 0 331 206" fill="none" xmlns="http://www.w3.org/2000/svg">
<path d="M224.748 123.003C234.041 122.098 243.529 125.125 248.174 133.749C247.342 129.903 247.918 128.07 247.661 124.305C251.711 124.27 256.173 124.146 260.184 124.343C260.446 126.339 260.348 130.316 260.344 132.474L260.314 146.188L260.332 166.563C260.339 172.84 260.5 177.805 259.484 184.035C256.357 203.187 240.317 207.654 223.372 204.815C221.231 204.456 212.578 202.085 211.426 200.317C211.501 198.881 212.694 194.512 213.128 192.793C213.533 191.306 213.738 190.374 213.979 188.853C217.026 190.604 222.136 193.135 225.641 193.604C234.278 194.759 244.576 193.514 246.665 183.327C247.708 178.235 247.017 173.04 247.718 167.868C247.288 168.53 246.181 170.396 245.788 170.886C242.338 174.904 237.462 177.665 232.246 178.515C205.978 182.793 194.284 151.94 207.469 132.57C211.394 126.804 217.765 124.008 224.748 123.003ZM233.021 167.928C234.294 167.658 235.778 167.401 236.987 166.871C248.949 161.625 249.72 143.106 239.231 136.064C236.762 134.406 232.571 133.253 229.571 133.663C224.768 134.536 221.827 135.215 218.963 139.376C216.004 143.676 215.274 150.704 216.288 155.685C218.036 164.267 224.55 168.852 233.021 167.928Z" fill="#0D0DC0"/>
<path d="M45.6213 91.8557C48.6083 92.196 54.8288 91.9973 58.0757 91.9941C58.5066 95.0066 58.1911 105.326 58.1857 109.028L58.1766 154.436L58.1927 168.436C58.2084 171.088 58.1554 175.125 58.5859 177.677C54.8947 177.629 49.3725 177.496 45.817 177.785C45.6913 174.907 45.8163 171.319 45.8481 168.387C45.0587 169.486 44.2469 170.596 43.3945 171.648C36.7267 179.88 23.2088 180.873 14.2086 175.741C10.3301 174.429 5.78566 169.296 3.83596 165.819C-3.22455 153.531 -0.668508 133.252 12.586 126.023C23.4809 120.081 39.6692 122.045 46.1504 133.558C45.4388 127.705 45.6254 120.983 45.6306 115.033L45.6213 91.8557ZM30.5631 167.994C35.3057 166.985 38.966 165.34 41.5832 161.206C46.3122 153.736 45.0058 141.009 37.1245 136.06C34.4872 134.404 30.4815 133.177 27.479 133.675C22.9579 134.395 19.3624 135.295 16.8581 139.389C9.51391 151.393 14.45 169.097 30.5631 167.994Z" fill="#0D0DC0"/>
<path d="M154.953 0.043184C156.754 0.368437 165.328 0.218881 167.227 0C167.113 3.84939 167.135 7.86607 167.162 11.7189C167.33 36.4817 166.903 61.3112 167.214 86.0674C165.064 85.6817 157.138 85.7729 154.874 85.9781C154.774 82.4987 154.678 79.6049 155.044 76.1164C147.956 88.1633 134.676 89.4936 122.751 83.9407C118.121 81.0116 114.218 77.2556 111.865 72.2175C105.657 58.9271 109.138 39.3483 123.796 33.1674C133.094 29.2466 145.411 30.3228 152.483 38.0975C153.589 39.3113 154.353 40.6098 155.341 41.9074C154.981 39.3904 154.758 36.8556 154.675 34.3143C154.368 25.3372 154.781 9.95828 154.641 0.52845C154.763 0.338435 154.867 0.176604 154.953 0.043184ZM139.971 76.1023C143.592 75.312 145.183 74.9584 148.044 72.41C153.065 67.9381 154.178 60.3932 152.719 54.007C151.752 49.8285 149.171 46.202 145.54 43.9198C143.086 42.3883 139.347 41.4412 136.488 41.8565C127.543 43.107 123.83 47.8158 122.96 56.5929C121.815 68.1419 127.277 77.2656 139.971 76.1023Z" fill="#0D0DC0"/>
<path d="M62.5396 31.1693C71.8571 30.5025 80.3414 32.9081 85.7771 41.0569C85.3021 38.6426 85.6598 35.2583 85.4014 32.5003C89.6367 32.4522 93.8725 32.4287 98.1081 32.4303C97.9874 34.9685 97.9387 37.733 97.9801 40.275C98.2267 55.4294 97.5412 70.8872 98.0963 86.0073C95.4738 85.7336 88.448 85.7473 85.8244 85.9655C85.5496 83.2302 85.9742 79.3422 85.7353 77.3466L85.4175 77.3625C85.1525 77.785 84.8729 78.198 84.5788 78.601C81.5461 82.7534 76.262 85.98 71.1096 86.7232C56.4162 88.8425 42.5905 79.8086 40.5451 64.6208C38.3011 47.9595 44.6123 33.7452 62.5396 31.1693ZM71.4489 76.1558C76.5568 74.8434 79.0882 73.6165 81.9752 68.9339C88.7032 58.0214 81.2604 39.8159 66.9018 42.084C64.3518 42.5302 61.8418 42.7448 59.8412 44.504C48.3148 54.6391 52.9879 79.0729 71.4489 76.1558Z" fill="#0D0DC0"/>
<path d="M271.013 31.1901C280.202 30.4219 289.16 33.1921 294.251 41.4041L294.224 41.2009C293.801 37.9202 293.928 35.743 293.837 32.4614C297.94 32.4909 302.17 32.2905 306.254 32.5409C306.541 35.893 306.302 42.5406 306.293 46.1809L306.275 72.5523C306.277 76.0764 306.134 82.5049 306.575 85.7954C302.531 85.932 298.047 85.6347 294.094 85.954C293.956 84.27 294.276 77.9979 293.824 77.2067L293.542 77.5802C286.362 89.3256 268.667 89.5336 258.605 81.5862C250.75 75.3839 248.197 66.6811 248.5 56.9813C248.927 43.1418 256.891 32.8014 271.013 31.1901ZM279.716 76.1648C284.346 75.037 287.41 73.6728 290.023 69.382C292.774 64.9701 293.61 59.6292 292.34 54.5881C290.369 46.5427 283.521 41.068 275.093 42.0846C270.826 42.792 268.044 43.6475 265.478 47.3903C257.453 59.0978 262.955 78.5973 279.716 76.1648Z" fill="#0D0DC0"/>
<path d="M90.6625 122.998C98.9754 122.449 107.124 123.098 112.956 129.736C119.327 136.987 119.031 146.662 118.596 155.71C116.791 155.639 114.801 155.609 112.999 155.644C102.172 155.855 91.0427 155.281 80.2457 155.694C81.7283 164.24 87.1058 168.605 95.8188 168.441C101.647 168.331 105.3 167.832 110.592 165.147C110.958 165.079 111.095 165.154 111.448 165.261C112.913 166.919 114.526 172.055 115.211 174.266C106.994 178.208 105.311 178.431 96.2697 178.795C81.5938 179.635 69.5206 171.986 67.4422 156.771C65.0516 139.272 72.1465 125.561 90.6625 122.998ZM80.0619 146.534C83.2676 146.146 90.8497 146.37 94.3327 146.376C97.8239 146.372 103.154 146.202 106.499 146.444C106.303 142.669 106.032 139.313 103.029 136.482C100.738 134.323 96.2872 133.398 93.177 133.604C92.962 133.618 92.7472 133.639 92.5335 133.666C83.7835 135.168 81.8993 138.465 80.0619 146.534Z" fill="#0D0DC0"/>
<path d="M190.959 33.589C190.714 40.1513 190.887 47.6983 190.886 54.3409L190.884 92.3677C190.884 120.553 190.504 149.68 190.933 177.78C190.669 177.818 188.278 177.72 187.814 177.719C184.61 177.717 181.495 177.478 178.3 177.888L178.337 83.4745L178.339 51.4009C178.339 46.2343 178.557 38.568 178.185 33.5579C181.81 33.7638 187.276 33.6333 190.959 33.589Z" fill="#0D0DC0"/>
<path d="M301.897 123.003C302.524 122.947 303.151 122.903 303.781 122.87C327.137 121.684 325.096 141.618 325.444 159.004C325.567 165.236 325.253 171.71 325.519 177.92C322.785 177.472 315.414 177.664 312.327 177.694C311.591 168.869 314.461 142.479 309.488 136.193C308.172 134.528 306.088 133.618 304.008 133.399C299.808 132.955 296.155 134.961 293 137.495C289.821 140.926 287.934 143.546 287.741 148.474C287.477 155.142 287.632 161.838 287.618 168.514C287.614 171.313 287.441 175.062 287.87 177.76C285.475 177.523 276.513 177.565 274.406 177.988C274.61 162.169 274.265 146.288 274.424 130.463C274.444 128.419 274.479 126.279 274.294 124.244C278.558 124.405 282.827 124.085 287.164 124.371C287.361 127.723 287.266 131.086 286.877 134.421C287.473 133.174 287.836 132.033 288.677 130.919C292.264 126.156 296.105 123.885 301.897 123.003Z" fill="#0D0DC0"/>
<path d="M146.714 123.007C152.275 122.492 157.777 122.993 163.108 124.644C164.669 125.127 166.591 125.099 167.115 126.762C167.042 127.688 166.44 128.717 165.939 129.738C164.982 131.686 164.272 134.378 162.786 135.994C162.541 136.261 161.708 135.85 161.386 135.711C158.388 134.413 155.389 133.286 152.083 133.184C148.541 132.848 141.99 133.374 142.143 138.282C142.942 143.069 151.112 144.792 154.705 146.173C159.453 147.998 162.958 149.672 166.478 153.174C168.436 155.123 169.401 157.132 169.707 159.715C171.461 174.536 160.21 178.785 147.727 178.768C142.607 178.714 137.532 177.811 132.709 176.094C129.934 175.083 128.113 174.696 129.433 171.428C130.458 168.889 131.517 166.383 132.598 163.866C133.755 164.359 135.419 165.128 136.562 165.805C141.215 168.56 148.574 169.303 153.76 168.146C155.855 167.679 156.802 165.818 157.669 164.069C156.394 158.019 151.535 158.393 146.906 156.461C139.524 153.294 130.788 149.824 129.682 140.743C128.26 129.057 136.483 124.371 146.714 123.007Z" fill="#0D0DC0"/>
<path d="M225.209 31.1719C232.107 30.5359 241.953 31.4367 247.097 36.673C244.978 39.8796 243.844 43.2892 241.217 46.7683C237.353 42.4916 232.248 41.3418 226.754 42.2698C215.928 44.0943 214.483 55.4436 215.994 64.3495C217.583 73.6966 225.436 77.7262 234.248 75.9531C235.241 75.7533 236.619 75.5895 237.562 75.2701C239.194 74.7185 240.671 73.6014 242.392 73.2495C243.067 73.39 243.337 73.8255 243.778 74.3492C244.306 76.1632 247.59 81.0806 246.247 82.4055C243.862 84.6684 238.664 86.1683 235.473 86.6724C219.615 89.1764 204.308 80.6083 201.986 63.8858C199.642 47.0095 207.878 33.5591 225.209 31.1719Z" fill="#0D0DC0"/>
<path d="M317.635 0.0805818C320.455 0.328783 327.972 0.238095 330.852 0.0610352C330.422 3.1365 330.611 11.1403 330.611 14.5369L330.615 42.6853L330.606 71.2112C330.604 74.7315 330.402 82.866 330.838 85.9337C327.367 85.7689 320.987 85.7155 317.607 85.9444L317.635 0.0805818Z" fill="#0D0DC0"/>
<path d="M31.3348 30.9677C32.7163 30.9332 34.8692 31.0852 36.319 31.1307C36.1936 33.9061 35.4749 40.8817 34.8685 43.6053C34.1766 44.4565 28.7671 43.8408 26.9842 44.2174C23.1153 45.0349 20.468 46.538 18.1135 49.7235C17.0509 51.1611 16.392 52.7444 16.1156 54.5246C15.5777 59.5975 15.7624 65.7323 15.7774 70.8645C15.7874 74.3475 15.5338 82.7972 16.0309 85.9343C13.6495 85.722 5.20275 85.7741 2.88893 86.0152C2.87756 84.3474 2.87756 82.6793 2.88893 81.0114C3.10917 71.0988 2.79642 60.5721 2.90438 50.5952C2.94621 46.7308 3.15077 35.5726 2.65527 32.4621C7.05403 32.4906 11.3353 32.3471 15.7558 32.5144C15.9352 35.429 15.5945 39.7898 15.2713 42.6254C19.3593 35.0803 22.4466 31.545 31.3348 30.9677Z" fill="#0D0DC0"/>
</svg>
