<svg preserveAspectRatio="none" width="100%" height="100%" overflow="visible" style="display: block;" viewBox="0 0 120 120" fill="none" xmlns="http://www.w3.org/2000/svg">
<g id="ellipse" clip-path="url(#clip0_0_85)">
<g id="Vector">
<path d="M89.9994 30C89.9994 46.5685 76.568 60 59.9994 60C43.4309 60 29.9994 46.5685 29.9994 30C29.9994 13.4315 43.4309 0 59.9994 0C76.568 0 89.9994 13.4315 89.9994 30Z" fill="var(--fill-0, #0D0DC0)"/>
<path d="M89.9994 90.0003C89.9994 106.569 76.568 120 59.9994 120C43.4309 120 29.9994 106.569 29.9994 90.0003C29.9994 73.4318 43.4309 60 59.9994 60C76.568 60 89.9994 73.4318 89.9994 90.0003Z" fill="var(--fill-0, #0D0DC0)"/>
<path d="M-1.31134e-06 120.001C7.95649 120.001 15.5871 116.84 21.2132 111.214C26.8393 105.588 30 97.9571 30 90.0006C30 82.0441 26.8393 74.4135 21.2132 68.7874C15.5871 63.1613 7.9565 60.0006 5.84122e-06 60.0006L-1.31134e-06 120.001Z" fill="var(--fill-0, #0D0DC0)"/>
<path d="M120 120.001C112.044 120.001 104.413 116.84 98.7868 111.214C93.1607 105.588 90 97.9571 90 90.0006C90 82.0441 93.1607 74.4135 98.7868 68.7874C104.413 63.1613 112.044 60.0006 120 60.0006V120.001Z" fill="var(--fill-0, #0D0DC0)"/>
<path d="M5.84122e-06 60.0006C7.9565 60.0006 15.5871 56.8393 21.2132 51.2132C26.8393 45.5871 29.9994 37.9565 29.9994 30C29.9994 22.0435 26.8393 14.4129 21.2132 8.7868C15.5871 3.16071 7.9565 1.54919e-06 5.84122e-06 0V60.0006Z" fill="var(--fill-0, #0D0DC0)"/>
<path d="M120 60.0006C112.044 60.0006 104.413 56.8393 98.7868 51.2132C93.1607 45.5871 89.9994 37.9565 89.9994 30C89.9994 22.0435 93.1607 14.4129 98.7868 8.7868C104.413 3.16071 112.044 1.54919e-06 120 0V60.0006Z" fill="var(--fill-0, #0D0DC0)"/>
</g>
</g>
<defs>
<clipPath id="clip0_0_85">
<rect width="120" height="120" fill="white"/>
</clipPath>
</defs>
</svg>
