<svg preserveAspectRatio="none" width="100%" height="100%" overflow="visible" style="display: block;" viewBox="0 0 120 120" fill="none" xmlns="http://www.w3.org/2000/svg">
<g id="ellipse">
<g id="Vector">
<path d="M83.4 23.4C83.4 36.3235 72.9235 46.8 60 46.8C47.0765 46.8 36.6 36.3235 36.6 23.4C36.6 10.4765 47.0765 0 60 0C72.9235 0 83.4 10.4765 83.4 23.4Z" fill="var(--fill-0, #0D0DC0)"/>
<path d="M83.4 96.6C83.4 109.523 72.9235 120 60 120C47.0765 120 36.6 109.523 36.6 96.6C36.6 83.6765 47.0765 73.2 60 73.2C72.9235 73.2 83.4 83.6765 83.4 96.6Z" fill="var(--fill-0, #0D0DC0)"/>
<path d="M96.6 83.4C83.6765 83.4 73.2 72.9235 73.2 60C73.2 47.0765 83.6765 36.6 96.6 36.6C109.523 36.6 120 47.0765 120 60C120 72.9235 109.523 83.4 96.6 83.4Z" fill="var(--fill-0, #0D0DC0)"/>
<path d="M23.4 83.4C10.4765 83.4 -5.64903e-07 72.9235 0 60C5.64903e-07 47.0765 10.4765 36.6 23.4 36.6C36.3235 36.6 46.8 47.0765 46.8 60C46.8 72.9235 36.3235 83.4 23.4 83.4Z" fill="var(--fill-0, #0D0DC0)"/>
</g>
</g>
</svg>
