<svg preserveAspectRatio="none" width="100%" height="100%" overflow="visible" style="display: block;" viewBox="0 0 120 120" fill="none" xmlns="http://www.w3.org/2000/svg">
<g id="moon" clip-path="url(#clip0_0_58)">
<g id="Vector">
<path d="M16.2 119.999C5.79975 103.619 2.28882e-06 82.2372 0 59.9996C0 37.7619 5.79975 16.3804 16.2 0V119.999Z" fill="var(--fill-0, #0D0DC0)"/>
<path d="M120 120C104.087 120 88.8258 113.679 77.5736 102.426C66.3214 91.1742 60 75.913 60 60C60 44.087 66.3214 28.8258 77.5736 17.5736C88.8258 6.32142 104.087 5.72106e-06 120 2.62268e-06L120 120Z" fill="var(--fill-0, #0D0DC0)"/>
<path d="M36.1736 105.291C42.3061 111.837 49.6294 116.82 57.6 120V0C49.6294 3.17928 42.3061 8.16236 36.1736 14.7089C24.9214 26.7208 18.6 43.0125 18.6 59.9999C18.6 76.9873 24.9214 93.279 36.1736 105.291Z" fill="var(--fill-0, #0D0DC0)"/>
</g>
</g>
<defs>
<clipPath id="clip0_0_58">
<rect width="120" height="120" fill="white"/>
</clipPath>
</defs>
</svg>
