<svg preserveAspectRatio="none" width="100%" height="100%" overflow="visible" style="display: block;" viewBox="0 0 206.546 245" fill="none" xmlns="http://www.w3.org/2000/svg">
<path id="Vector" d="M0.221365 68.8776C-0.211588 69.5839 0.00999367 70.5074 0.716282 70.9404C1.42257 71.3733 2.34611 71.1517 2.77906 70.4454L1.50021 69.6615L0.221365 68.8776ZM75.8635 5.31267L76.3221 6.74085L75.8635 5.31267ZM160.057 35.7995L158.573 36.0221L160.057 35.7995ZM149.337 108.063L147.877 107.716L147.877 107.717L149.337 108.063ZM139.972 142.89L141.397 143.357L141.398 143.357L139.972 142.89ZM125.784 170.91L125.695 172.408L125.697 172.408L125.784 170.91ZM119.335 158.098L117.838 158.188L117.838 158.189L119.335 158.098ZM123.138 137.924L124.568 138.374L124.569 138.373L123.138 137.924ZM140.162 98.9217L138.875 98.1509L138.875 98.151L140.162 98.9217ZM168.147 88.0815L166.951 88.9868L166.951 88.9869L168.147 88.0815ZM176.774 124.688L178.274 124.674V124.674L176.774 124.688ZM175.123 151.056L176.606 151.277L176.606 151.277L175.123 151.056ZM168.758 175.725L167.342 175.229L167.341 175.233L168.758 175.725ZM167.276 179.776L168.676 180.315L168.677 180.314L167.276 179.776ZM159.705 190.973L160.099 192.42L160.101 192.42L159.705 190.973ZM153.977 179.255L155.475 179.334L155.475 179.333L153.977 179.255ZM158.627 159.955L160.048 160.437L160.048 160.437L158.627 159.955ZM174.809 133.644L175.704 134.848L175.705 134.847L174.809 133.644ZM185.123 131.746L185.892 130.458L185.892 130.458L185.123 131.746ZM195.5 165.944H197H195.5ZM194.44 244.561C195.025 245.146 195.975 245.146 196.561 244.561L206.107 235.015C206.693 234.429 206.693 233.479 206.107 232.893C205.521 232.308 204.571 232.308 203.986 232.893L195.5 241.379L187.015 232.893C186.429 232.308 185.479 232.308 184.894 232.893C184.308 233.479 184.308 234.429 184.894 235.015L194.44 244.561ZM1.50021 69.6615L2.77906 70.4454C17.7538 46.0167 27.9352 32.7867 38.4165 24.3163C48.8672 15.8706 59.709 12.0751 76.3221 6.74085L75.8635 5.31267L75.405 3.88448C58.8262 9.20774 47.4714 13.1413 36.5309 21.983C25.6209 30.7998 15.2166 44.4155 0.221365 68.8776L1.50021 69.6615ZM75.8635 5.31267L76.3221 6.74085C85.6072 3.75949 104.884 1.27609 122.536 4.54845C140.186 7.82024 155.674 16.7007 158.573 36.0221L160.057 35.7995L161.54 35.5769C158.36 14.3832 141.257 4.96774 123.083 1.59871C104.912 -1.76977 85.1326 0.761029 75.405 3.88448L75.8635 5.31267ZM160.057 35.7995L158.573 36.0221C160.352 47.875 159.066 60.0241 156.627 72.1266C154.175 84.2964 150.628 96.1368 147.877 107.716L149.337 108.063L150.796 108.41C153.483 97.1016 157.112 84.9096 159.568 72.7192C162.038 60.4617 163.393 47.9229 161.54 35.5769L160.057 35.7995ZM149.337 108.063L147.877 107.717C145.054 119.612 142.147 131.429 138.547 142.423L139.972 142.89L141.398 143.357C145.041 132.23 147.973 120.303 150.796 108.409L149.337 108.063ZM139.972 142.89L138.547 142.422C136.845 147.609 135.023 154.535 132.743 160.28C131.608 163.137 130.414 165.553 129.155 167.209C127.865 168.905 126.774 169.466 125.872 169.413L125.784 170.91L125.697 172.408C128.129 172.55 130.065 170.968 131.543 169.025C133.052 167.04 134.366 164.321 135.531 161.387C137.848 155.549 139.786 148.27 141.397 143.357L139.972 142.89ZM125.784 170.91L125.874 169.413C124.884 169.354 123.725 168.497 122.692 166.307C121.696 164.197 121.03 161.25 120.832 158.007L119.335 158.098L117.838 158.189C118.051 161.681 118.772 165.03 119.979 167.588C121.148 170.066 123.008 172.247 125.695 172.408L125.784 170.91ZM119.335 158.098L120.832 158.008C120.393 150.722 122.592 144.65 124.568 138.374L123.138 137.924L121.707 137.473C119.784 143.582 117.358 150.234 117.838 158.188L119.335 158.098ZM123.138 137.924L124.569 138.373C129.14 123.803 134.82 110.762 141.449 99.6923L140.162 98.9217L138.875 98.151C132.105 109.457 126.335 122.722 121.707 137.474L123.138 137.924ZM140.162 98.9217L141.449 99.6925C145.277 93.3012 149.974 88.0805 154.566 85.7819C156.833 84.6474 158.986 84.2664 160.979 84.6975C162.963 85.1266 164.997 86.4049 166.951 88.9868L168.147 88.0815L169.343 87.1762C167.064 84.1653 164.456 82.3801 161.613 81.7653C158.78 81.1527 155.923 81.7476 153.223 83.0992C147.882 85.7729 142.82 91.565 138.875 98.1509L140.162 98.9217ZM168.147 88.0815L166.951 88.9869C169.784 92.7287 171.85 98.2303 173.215 104.588C174.575 110.918 175.213 117.969 175.274 124.702L176.774 124.688L178.274 124.674C178.212 117.787 177.56 110.528 176.149 103.958C174.743 97.4134 172.557 91.4216 169.343 87.1761L168.147 88.0815ZM176.774 124.688L175.274 124.702C175.354 133.52 174.898 142.397 173.639 150.835L175.123 151.056L176.606 151.277C177.894 142.647 178.355 133.608 178.274 124.674L176.774 124.688ZM175.123 151.056L173.639 150.834C172.333 159.583 169.989 167.686 167.342 175.229L168.758 175.725L170.173 176.222C172.857 168.571 175.263 160.275 176.606 151.277L175.123 151.056ZM168.758 175.725L167.341 175.233C166.869 176.591 166.382 177.922 165.876 179.238L167.276 179.776L168.677 180.314C169.194 178.968 169.692 177.606 170.175 176.217L168.758 175.725ZM167.276 179.776L165.876 179.237C164.951 181.642 163.913 184.114 162.732 186.078C161.504 188.121 160.337 189.245 159.31 189.526L159.705 190.973L160.101 192.42C162.338 191.809 164.027 189.748 165.304 187.623C166.628 185.42 167.743 182.739 168.676 180.315L167.276 179.776ZM159.705 190.973L159.312 189.525C158.997 189.611 158.668 189.567 158.242 189.234C157.775 188.869 157.261 188.194 156.795 187.186C155.867 185.179 155.321 182.266 155.475 179.334L153.977 179.255L152.479 179.177C152.303 182.517 152.909 185.928 154.072 188.444C154.651 189.697 155.417 190.834 156.396 191.599C157.417 192.396 158.702 192.8 160.099 192.42L159.705 190.973ZM153.977 179.255L155.475 179.333C155.807 172.966 158.189 165.913 160.048 160.437L158.627 159.955L157.207 159.473C155.377 164.863 152.836 172.32 152.479 179.177L153.977 179.255ZM158.627 159.955L160.048 160.437C163.947 148.944 169.353 139.569 175.704 134.848L174.809 133.644L173.914 132.441C166.823 137.712 161.168 147.797 157.207 159.473L158.627 159.955ZM174.809 133.644L175.705 134.847C178.91 132.459 181.837 131.531 184.354 133.033L185.123 131.746L185.892 130.458C181.68 127.943 177.285 129.928 173.912 132.442L174.809 133.644ZM185.123 131.746L184.353 133.033C187.594 134.97 190.054 139.309 191.682 145.337C193.291 151.295 194 158.58 194 165.944H195.5H197C197 158.42 196.279 150.852 194.578 144.555C192.897 138.329 190.169 133.013 185.892 130.458L185.123 131.746ZM195.5 165.944H194C194 209.886 194 225.322 194 243.5H195.5H197C197 225.322 197 209.886 197 165.944H195.5Z" fill="var(--stroke-0, #0D0DC0)"/>
</svg>
