<svg width="325" height="287" viewBox="-40 -40 325 287" fill="none" xmlns="http://www.w3.org/2000/svg">
  <defs>
    <mask id="arrow-draw-mask" maskUnits="userSpaceOnUse" x="-40" y="-40" width="325" height="287">
      <rect x="-40" y="-40" width="325" height="287" fill="black"/>
      <path
        id="draw-reveal"
        d="M175.338 1.5C199.8 16.5 213.4 26.9 222.2 37.8C231 48.7 235 60 240 75.9C243.2 85.6 245 105.4 241.8 123.1C238.4 141.2 229 158.4 209.2 160.1C184 162.2 159.4 154 136.9 149.3C125 146.5 113 143.6 102.1 140C96.8 138.3 89 136 82 133.2C75.8 130.7 72.8 128 74.1 125.8C76.4 121.9 86.9 119.3 97 121.2C112.9 124.3 131.6 132.5 146.1 140.2C154.6 144.7 164.6 154 160.3 161C156.2 167.8 143.7 174 120.3 176.8C109 178.1 94.9 176.5 81.4 173.3C69 170.4 56.1 165.7 54 159.7C52.4 155 59.1 153.6 65.7 154C72.7 154.4 80.1 156.9 85 158.6C96.7 162.6 107.3 168.1 111.4 174.8C114.4 179.7 114 184.3 109.5 188C103.5 192.8 91.4 195.5 79.1 195.5L1.5 195.5"
        pathLength="1"
        fill="none"
        stroke="white"
        stroke-width="22"
        stroke-linecap="round"
        stroke-linejoin="round"
      />
    </mask>
  </defs>

  <path mask="url(#arrow-draw-mask)" d="M176.122 0.221149C175.416 -0.211804 174.493 0.00977751 174.06 0.716066C173.627 1.42235 173.848 2.34589 174.555 2.77884L175.338 1.5L176.122 0.221149ZM239.687 75.8633L238.259 76.3219L239.687 75.8633ZM209.2 160.056L208.978 158.573L209.2 160.056ZM136.937 149.337L137.284 147.877L137.283 147.877L136.937 149.337ZM102.11 139.972L101.642 141.397L101.643 141.397L102.11 139.972ZM74.0895 125.784L72.5922 125.695L72.5921 125.697L74.0895 125.784ZM86.9019 119.335L86.8115 117.838L86.8104 117.838L86.9019 119.335ZM107.076 123.138L106.626 124.568L106.627 124.569L107.076 123.138ZM146.078 140.162L146.849 138.875L146.849 138.875L146.078 140.162ZM156.918 168.147L156.013 166.951L156.013 166.951L156.918 168.147ZM120.312 176.774L120.326 178.274L120.326 178.274L120.312 176.774ZM93.9441 175.122L93.7226 176.606L93.7227 176.606L93.9441 175.122ZM69.2747 168.757L69.7714 167.342L69.7669 167.341L69.2747 168.757ZM65.2237 167.276L64.6847 168.676L64.6858 168.676L65.2237 167.276ZM54.0272 159.705L52.5796 160.098L52.5802 160.101L54.0272 159.705ZM65.7446 153.976L65.6659 155.474L65.6665 155.474L65.7446 153.976ZM85.0448 158.627L84.5626 160.047L84.5628 160.047L85.0448 158.627ZM111.356 174.809L110.152 175.703L110.153 175.705L111.356 174.809ZM113.254 185.122L114.542 185.892L114.542 185.891L113.254 185.122ZM79.0555 195.5L79.0555 197L79.0555 195.5ZM0.439353 194.439C-0.146447 195.025 -0.146447 195.975 0.439353 196.561L9.98528 206.107C10.5711 206.692 11.5208 206.692 12.1066 206.107C12.6924 205.521 12.6924 204.571 12.1066 203.985L3.62133 195.5L12.1066 187.015C12.6924 186.429 12.6924 185.479 12.1066 184.893C11.5208 184.308 10.5711 184.308 9.98528 184.893L0.439353 194.439ZM175.338 1.5L174.555 2.77884C198.983 17.7536 212.213 27.935 220.684 38.4163C229.129 48.867 232.925 59.7088 238.259 76.3219L239.687 75.8633L241.115 75.4047C235.792 58.826 231.859 47.4712 223.017 36.5306C214.2 25.6207 200.584 15.2163 176.122 0.221149L175.338 1.5ZM239.687 75.8633L238.259 76.3219C241.24 85.607 243.724 104.884 240.451 122.536C237.18 140.186 228.299 155.674 208.978 158.573L209.2 160.056L209.423 161.54C230.617 158.359 240.032 141.257 243.401 123.083C246.77 104.912 244.239 85.1324 241.115 75.4047L239.687 75.8633ZM209.2 160.056L208.978 158.573C197.125 160.352 184.976 159.066 172.873 156.627C160.704 154.175 148.863 150.628 137.284 147.877L136.937 149.337L136.59 150.796C147.898 153.483 160.09 157.112 172.281 159.568C184.538 162.038 197.077 163.392 209.423 161.54L209.2 160.056ZM136.937 149.337L137.283 147.877C125.388 145.054 113.571 142.146 102.577 138.546L102.11 139.972L101.643 141.397C112.77 145.041 124.697 147.973 136.591 150.796L136.937 149.337ZM102.11 139.972L102.578 138.547C97.3906 136.845 90.4649 135.023 84.7201 132.742C81.8628 131.608 79.4466 130.413 77.7914 129.155C76.0951 127.865 75.5344 126.774 75.587 125.871L74.0895 125.784L72.5921 125.697C72.4502 128.129 74.0324 130.065 75.9754 131.543C77.9596 133.052 80.6791 134.366 83.6131 135.531C89.451 137.848 96.73 139.786 101.642 141.397L102.11 139.972ZM74.0895 125.784L75.5869 125.874C75.646 124.884 76.5033 123.725 78.6926 122.691C80.8028 121.696 83.7498 121.03 86.9933 120.832L86.9019 119.335L86.8104 117.838C83.3188 118.051 79.9695 118.772 77.4123 119.978C74.9341 121.148 72.7528 123.008 72.5922 125.695L74.0895 125.784ZM86.9019 119.335L86.9922 120.832C94.2783 120.393 100.35 122.592 106.626 124.568L107.076 123.138L107.527 121.707C101.418 119.783 94.7662 117.358 86.8115 117.838L86.9019 119.335ZM107.076 123.138L106.627 124.569C121.197 129.14 134.238 134.82 145.308 141.449L146.078 140.162L146.849 138.875C135.542 132.104 122.278 126.335 107.525 121.706L107.076 123.138ZM146.078 140.162L145.307 141.449C151.699 145.277 156.919 149.974 159.218 154.566C160.353 156.832 160.733 158.985 160.302 160.979C159.873 162.963 158.595 164.997 156.013 166.951L156.918 168.147L157.824 169.343C160.835 167.064 162.62 164.455 163.235 161.613C163.847 158.78 163.252 155.923 161.901 153.223C159.227 147.882 153.435 142.82 146.849 138.875L146.078 140.162ZM156.918 168.147L156.013 166.951C152.271 169.784 146.77 171.85 140.412 173.215C134.082 174.575 127.031 175.213 120.298 175.274L120.312 176.774L120.326 178.274C127.213 178.212 134.471 177.56 141.042 176.148C147.587 174.743 153.578 172.557 157.824 169.343L156.918 168.147ZM120.312 176.774L120.298 175.274C111.48 175.354 102.603 174.898 94.1654 173.639L93.9441 175.122L93.7227 176.606C102.353 177.894 111.392 178.355 120.326 178.274L120.312 176.774ZM93.9441 175.122L94.1655 173.639C85.4172 172.333 77.314 169.989 69.7714 167.342L69.2747 168.757L68.7781 170.173C76.4289 172.857 84.7252 175.263 93.7226 176.606L93.9441 175.122ZM69.2747 168.757L69.7669 167.341C68.4091 166.869 67.0779 166.382 65.7616 165.876L65.2237 167.276L64.6858 168.676C66.0319 169.193 67.3937 169.692 68.7826 170.174L69.2747 168.757ZM65.2237 167.276L65.7626 165.876C63.3582 164.951 60.8864 163.912 58.9218 162.732C56.8785 161.504 55.7548 160.337 55.4741 159.31L54.0272 159.705L52.5802 160.101C53.1914 162.338 55.2517 164.027 57.3766 165.303C59.5802 166.628 62.2607 167.743 64.6847 168.676L65.2237 167.276ZM54.0272 159.705L55.4747 159.312C55.389 158.996 55.4333 158.668 55.7657 158.242C56.1309 157.775 56.8055 157.261 57.8142 156.795C59.8211 155.867 62.7338 155.32 65.6659 155.474L65.7446 153.976L65.8233 152.479C62.4832 152.303 59.072 152.908 56.5556 154.071C55.3028 154.65 54.1659 155.417 53.4013 156.396C52.604 157.417 52.2002 158.702 52.5796 160.098L54.0272 159.705ZM65.7446 153.976L65.6665 155.474C72.0339 155.806 79.0872 158.189 84.5626 160.047L85.0448 158.627L85.5269 157.207C80.1372 155.377 72.68 152.836 65.8227 152.479L65.7446 153.976ZM85.0448 158.627L84.5628 160.047C96.0555 163.947 105.431 169.353 110.152 175.703L111.356 174.809L112.559 173.914C107.288 166.823 97.2027 161.168 85.5267 157.207L85.0448 158.627ZM111.356 174.809L110.153 175.705C112.541 178.91 113.469 181.837 111.966 184.353L113.254 185.122L114.542 185.891C117.057 181.68 115.072 177.285 112.558 173.912L111.356 174.809ZM113.254 185.122L111.967 184.353C110.03 187.594 105.691 190.054 99.6627 191.682C93.7052 193.291 86.42 194 79.0555 194L79.0555 195.5L79.0555 197C86.5796 197 94.148 196.279 100.445 194.578C106.671 192.897 111.987 190.168 114.542 185.892L113.254 185.122ZM79.0555 195.5L79.0555 194C35.1136 194 19.6775 194 1.50001 194L1.50001 195.5L1.50001 197C19.6775 197 35.1136 197 79.0555 197L79.0555 195.5Z" fill="#1515E0"/>
</svg>
